<?xml version="1.0" encoding="UTF-8"?>
<svg width="60px" height="75px" viewBox="0 0 60 75" version="1.1" xmlns="http://www.w3.org/2000/svg" xmlns:xlink="http://www.w3.org/1999/xlink">
    <!-- Generator: sketchtool 40.1 (33804) - http://www.bohemiancoding.com/sketch -->
    <title>EC952A75-32A8-4299-966A-1602B8B2BE6B</title>
    <desc>Created with sketchtool.</desc>
    <defs>
        <polygon id="path-1" points="0.0132383439 -0.0540819564 58.9106303 -0.0540819564 58.9106303 74.0338014 0.0132383439 74.0338014"></polygon>
    </defs>
    <g id="Page-1" stroke="none" stroke-width="1" fill="none" fill-rule="evenodd">
        <g id="Landing-page" transform="translate(-642.000000, -4022.000000)">
            <g id="Services" transform="translate(0.000000, 3621.000000)">
                <g id="Icones" transform="translate(349.000000, 394.000000)">
                    <g id="two401" transform="translate(293.372807, 7.201031)">
                        <g id="Group-3">
                            <mask id="mask-2" fill="white">
                                <use xlink:href="#path-1"></use>
                            </mask>
                            <g id="Clip-2"></g>
                            <path d="M27.9262864,66.9934739 C27.9262864,63.6650153 23.2059343,61.9568169 18.2810497,61.6305664 L18.2810497,39.5840349 C21.7605278,37.9842202 25.2175006,34.723474 27.9212117,30.4503399 C31.21778,25.2391257 33.0329776,19.0251968 33.0329776,12.951969 C33.0329776,8.85559059 32.5226394,4.91552221 31.5169666,1.24168654 C31.3075801,0.476624721 30.61014,-0.0540819564 29.8147362,-0.0540819564 L3.2182414,-0.0540819564 C2.42261693,-0.0540819564 1.72539749,0.476624721 1.51601101,1.24168654 C0.510117518,4.91552221 0,8.85559059 0,12.951969 C0,19.0251968 1.81519759,25.2391257 5.11176585,30.4503399 C7.8145944,34.723474 11.2724498,37.9842202 14.7517072,39.5840349 L14.7517072,61.6305664 C9.82704331,61.9568169 5.10669116,63.6650153 5.10669116,66.9934739 C5.10669116,70.7196327 11.0207006,72.416619 16.5168198,72.416619 C22.0122769,72.416619 27.9262864,70.7196327 27.9262864,66.9934739 L27.9262864,66.9934739 Z M8.0981156,28.5746194 C5.15236344,23.9176353 3.53022504,18.3698379 3.53022504,12.951969 C3.53022504,9.64813308 3.88699841,6.46301363 4.59194022,3.46344366 L28.4408167,3.46344366 C29.1459792,6.46301363 29.5027526,9.64813308 29.5027526,12.951969 C29.5027526,18.3698379 27.8806142,23.9176353 24.934862,28.5746194 C22.5413694,32.3574983 19.4352127,35.2774843 16.5168198,36.5174121 C13.5977649,35.2774843 10.4916082,32.3574983 8.0981156,28.5746194 L8.0981156,28.5746194 Z M16.5168198,68.8990934 C11.8661895,68.8990934 9.17373104,67.6143171 8.68258848,66.9934739 C9.10820124,66.4568314 11.1844148,65.4220193 14.7517072,65.1540278 L14.7517072,65.4400466 C14.7517072,66.4113234 15.5420364,67.1988094 16.5168198,67.1988094 C17.4907206,67.1988094 18.2819323,66.4113234 18.2819323,65.4400466 L18.2819323,65.1540278 C21.8483421,65.4220193 23.9247764,66.4568314 24.3503891,66.9934739 C23.8592466,67.6143171 21.166788,68.8990934 16.5168198,68.8990934 L16.5168198,68.8990934 Z" id="Fill-1" fill="#F9B42D" mask="url(#mask-2)"></path>
                        </g>
                        <path d="M58.7003613,8.97408724 C58.6849165,8.19605454 58.1478811,7.52530637 57.3902065,7.33645921 L33.3681283,1.33885819 C33.6854073,2.56515556 33.9508361,3.81805421 34.1628702,5.09425648 L55.2416233,10.3566946 C55.1950685,13.3786888 54.7718827,16.4934578 53.9824362,19.6365868 C52.6852991,24.7917404 49.8143436,29.6850582 45.8980002,33.4164934 C42.7152817,36.4470615 39.0617194,38.4874463 35.9873347,38.9735243 C33.6595925,37.2165203 31.5297636,34.0124941 30.1421646,30.1797103 C29.9078459,30.5877432 29.6655842,30.9911595 29.413835,31.3879803 C28.9114399,32.183161 28.3832299,32.9440457 27.8349419,33.6706346 C29.342348,36.955344 31.3358219,39.6759302 33.5750878,41.471627 L28.2996077,62.4488308 C27.7927998,62.3569354 27.2886395,62.2815285 26.7939668,62.2221702 C28.6599113,63.4442905 29.691399,65.0759827 29.691399,66.9934739 C29.691399,67.3962306 29.6439616,67.7783218 29.56056,68.1450238 C30.1267198,67.9768421 30.5929302,67.5250599 30.7471569,66.9119112 L30.8153344,66.6397427 C34.1361729,67.7389695 35.8633355,69.2108341 36.1477393,69.8266209 C35.8675277,70.0225031 34.9505517,70.4182247 32.9967928,70.4182247 C31.7031859,70.4182247 30.2542492,70.2423485 28.7761881,69.9099423 C28.0160865,71.0014745 26.8248562,71.8705231 25.3657701,72.5333569 C26.0345271,72.7602373 26.7163018,72.9602965 27.3989591,73.130237 C29.3319779,73.6130174 31.2678651,73.868038 32.9967928,73.868038 C38.0033138,73.868038 39.2530135,71.8714025 39.5530826,70.6811598 C39.7968888,69.7114219 39.7633516,67.7759035 36.7966388,65.7113358 C35.4324274,64.7616039 33.6474574,63.9233335 31.6590581,63.2862217 L36.9338763,42.3107768 C40.6269329,41.6151861 44.6966205,39.3334112 48.2906102,35.9101992 C52.6740465,31.7348963 55.8880958,26.2534921 57.3412246,20.4748571 C58.3210827,16.5785379 58.7778056,12.7088201 58.7003613,8.97408724 L58.7003613,8.97408724 Z" id="Fill-4" fill="#7B7B7B"></path>
                    </g>
                </g>
            </g>
        </g>
    </g>
</svg>