<?xml version="1.0" encoding="UTF-8"?>
<svg width="85px" height="81px" viewBox="0 0 85 81" version="1.1" xmlns="http://www.w3.org/2000/svg" xmlns:xlink="http://www.w3.org/1999/xlink">
    <!-- Generator: sketchtool 40.1 (33804) - http://www.bohemiancoding.com/sketch -->
    <title>782F42DA-3CB7-4F21-A2D3-DE1594BBCD32</title>
    <desc>Created with sketchtool.</desc>
    <defs>
        <polygon id="path-1" points="0 0.154545455 88.7868669 0.154545455 88.7868669 81.2484091 0 81.2484091"></polygon>
    </defs>
    <g id="Page-1" stroke="none" stroke-width="1" fill="none" fill-rule="evenodd">
        <g id="Landing-page" transform="translate(-1208.000000, -4019.000000)">
            <g id="Services" transform="translate(0.000000, 3621.000000)">
                <g id="Icones" transform="translate(349.000000, 394.000000)">
                    <g id="floral107" transform="translate(859.364035, 3.000000)">
                        <mask id="mask-2" fill="white">
                            <use xlink:href="#path-1"></use>
                        </mask>
                        <g id="Clip-2"></g>
                        <path d="M14.8698701,75.3795455 C20.5676707,79.1659091 27.0992959,81.1286364 33.7776124,81.1286364 C36.0397474,81.1286364 38.3018823,80.92 40.5485761,80.4640909 C63.3320582,75.9088636 78.2019282,53.7354545 73.8745335,30.9322727 C77.3256405,30.5690909 69.8173598,31.4925 70.7978756,31.3263636 C74.928395,52.5454545 61.131688,73.2043182 39.9309283,77.4311364 C31.7856983,79.0615909 23.493777,77.4156818 16.5722617,72.7986364 C14.9277745,71.7129545 13.4222581,70.4572727 12.0479918,69.1165909 C15.1092086,70.6234091 18.4560874,71.4386364 21.8801722,71.4386364 C23.389549,71.4386364 24.8950654,71.2879545 26.4044421,70.9865909 C38.6801916,68.5254545 47.4237678,58.3988636 48.4506072,46.7809091 C49.8518956,46.1472727 42.3860782,46.3868182 45.3430669,46.7809091 C44.3316687,56.95 36.5956303,65.7938636 25.8022356,67.9536364 C20.764546,68.9659091 15.6689519,68 11.430344,65.2529545 C7.94835473,63.0043182 5.42757978,59.7743182 4.08805617,55.9995455 C3.78309259,55.0181818 3.52831288,54.0097727 3.33143766,52.9975 C2.06525973,45.2547727 7.29982458,37.7979545 15.2288778,36.2138636 C18.3055358,35.6111364 21.4439585,36.1829545 24.0226379,37.8597727 C26.6013174,39.5365909 28.3345914,42.0865909 28.936798,45.0577273 C29.8864314,49.7984091 26.674663,54.4463636 21.7759442,55.4277273 C20.94598,55.5938636 20.4016779,56.4090909 20.5676707,57.2552273 C20.7336636,58.0820455 21.5481866,58.6268182 22.3781508,58.4606818 C28.9522392,57.1470455 33.2487515,50.8531818 31.9671324,44.4395455 C31.2143742,40.6531818 28.9831216,37.3922727 25.7095884,35.2634091 C22.4360552,33.15 18.502411,32.4120455 14.6421124,33.1809091 C4.84081439,35.1436364 -1.56728122,44.5013636 0.331985676,54.0522727 C0.544302097,55.1109091 0.860846579,56.1077273 1.20441315,57.0890909 C3.51287169,64.5575 8.28034041,70.9711364 14.8698701,75.3795455 Z" id="Fill-1" fill="#7B7B7B" mask="url(#mask-2)"></path>
                        <path d="M70.5392356,28.2470455 C69.5741609,28.3977273 68.5975054,28.5638636 67.6169896,28.5638636 C65.760186,28.5638636 63.679485,28.0190909 62.3824247,24.0047727 C62.2164319,23.4754545 62.1430862,22.9345455 62.0658802,22.3434091 C61.7956593,20.3690909 61.4482325,17.7727273 58.3406921,14.2259091 C60.4522754,14.1331818 62.6526456,14.6625 64.5094492,15.7481818 C65.0807734,16.065 65.760186,16.0070455 66.2581645,15.5975 C66.756143,15.2072727 66.9530182,14.5272727 66.756143,13.9245455 C65.0228689,8.67 67.7057764,5.74136364 69.9061466,4.2925 C70.0296762,6.18181818 70.7978756,7.64613636 71.5197514,8.98681818 C72.2146052,10.3004545 72.8631353,11.5368182 73.1063341,13.26 C73.1796798,13.8472727 73.5850111,14.3302273 74.1293132,14.5118182 C74.6890565,14.7088636 75.2912631,14.5736364 75.7120357,14.1640909 C77.5070745,12.4293182 79.5144297,11.6140909 81.1434757,11.2354545 C79.0589145,15.4777273 79.4063414,18.0740909 79.6649814,20.0522727 C79.7228859,20.6240909 79.815533,21.1843182 79.7846506,21.7252273 C79.4989885,27.2965909 76.3296834,27.5979545 72.9828046,27.9302273 C72.5465908,27.9727273 72.1528404,28.0036364 71.7629502,28.0654545 C71.3691998,28.1118182 70.9638684,28.1697727 70.5392356,28.2470455 L70.5392356,28.2470455 Z" id="Path" stroke="#F9B42D" stroke-width="3" mask="url(#mask-2)"></path>
                        <path d="M41.4094227,41.3177273 C39.189751,37.8288636 40.8033558,31.1602273 42.3590561,26.7672727 C44.0614478,29.4679545 46.2463767,31.3109091 47.5743195,32.4429545 L47.9063051,32.7134091 C49.9136604,34.4172727 52.2028174,36.9556818 51.7974861,39.3395455 C51.511824,41.0588636 49.882778,42.4188636 48.5085117,43.2611364 C48.435166,41.9784091 48.3154968,40.6802273 48.0568568,39.3859091 C47.8908639,38.5552273 47.0608997,37.995 46.2347959,38.1765909 C45.4048317,38.3427273 44.8605296,39.1579545 45.0265224,39.9886364 C45.2697212,41.2404545 45.3893905,42.4922727 45.435714,43.7325 C43.5634692,43.4118182 42.2239456,42.6275 41.4094227,41.3177273 L41.4094227,41.3177273 Z" id="Path" stroke="#F9B42D" stroke-width="3" mask="url(#mask-2)"></path>
                    </g>
                </g>
            </g>
        </g>
    </g>
</svg>