<?xml version="1.0" encoding="UTF-8"?>
<svg width="70px" height="79px" viewBox="0 0 70 79" version="1.1" xmlns="http://www.w3.org/2000/svg" xmlns:xlink="http://www.w3.org/1999/xlink">
    <!-- Generator: sketchtool 40.1 (33804) - http://www.bohemiancoding.com/sketch -->
    <title>AF197A1B-F520-4BB2-8443-FB55BF8D0FAB</title>
    <desc>Created with sketchtool.</desc>
    <defs></defs>
    <g id="Page-1" stroke="none" stroke-width="1" fill="none" fill-rule="evenodd">
        <g id="Landing-page" transform="translate(-348.000000, -4016.000000)" stroke-width="3">
            <g id="Services" transform="translate(0.000000, 3621.000000)">
                <g id="Icones" transform="translate(349.000000, 394.000000)">
                    <g id="half4" transform="translate(0.660088, 2.974472)">
                        <path d="M33.3032619,21.1698439 L33.0576831,21.1698439 C32.2577695,21.1698439 31.4733036,21.0510118 30.8079632,20.8446661 C30.0157734,20.598875 29.0967343,20.2658676 28.3362321,19.9646743 C27.4253129,19.600051 26.5062737,19.2194711 25.5872345,18.8942934 C24.5416431,18.5218405 23.456244,18.3077643 22.3553973,18.1807061 C21.6344056,18.1014186 20.9214348,18.053747 20.1927193,18.053747 C19.5510455,18.053747 18.9169967,18.0777315 18.2753229,18.1254031 C16.6591568,18.2519657 15.0670534,18.537698 13.5221843,19.0371099 C10.4725507,20.0200764 7.88981404,21.7169274 5.71941211,24.0638367 C3.41404085,26.5771505 1.87719269,29.5028583 0.982117271,32.7854588 C-0.602262275,38.6449022 -0.143089278,45.1861188 1.45713406,50.9978907 C2.26516763,53.931329 3.28709244,56.7780466 4.61004936,59.5212941 C5.98053766,62.3753458 7.54897439,65.1032314 9.41071938,67.6560898 C10.2586595,68.8217148 11.1695787,69.9316403 12.1833836,70.9545478 C13.3082931,72.0880614 14.5205415,73.0791548 15.9227174,73.8484415 C17.5070969,74.7125759 19.3607219,75.1012827 21.1671127,74.9901811 C23.1236234,74.8712499 24.8190085,74.0466602 26.6250031,73.364887 C27.2826197,73.1190959 27.947861,72.8809361 28.6135975,72.6749869 C29.6673089,72.3420786 30.744588,72.1039189 31.8535547,71.9692293 C32.3366914,71.9138272 32.8279481,71.8898427 33.3032619,71.8898427 L33.3350486,71.8898427 C33.8181853,71.8898427 34.309442,71.9138272 34.7847558,71.9692293 C35.8857016,72.0961883 36.9632777,72.3339517 38.024713,72.6749869 C39.3635137,73.0950123 40.6705278,73.6107773 41.9698181,74.1577618 C45.304937,75.5452926 48.9649528,75.1647127 51.9356644,73.1109689 C52.8465836,72.4844988 53.6785809,71.7474226 54.4549269,70.9704053 C55.4687318,69.9475969 56.379651,68.8375723 57.2275911,67.6719473 C59.08894,65.1109619 60.6574758,62.3834728 62.0279641,59.5372507 C64.665956,54.058288 66.3219297,48.087743 66.5516648,41.9987624 C66.6622742,38.8984239 66.4642268,35.8063116 65.6561932,32.8013163 C64.7692378,29.5187158 63.2320925,26.593008 60.9188984,24.0796942 C58.7484965,21.724658 56.1657598,20.0282034 53.1158291,19.0529674 C51.5712571,18.553159 49.9868776,18.2600927 48.3626905,18.1412606 C47.7213139,18.093589 47.087364,18.0696045 46.4455913,18.0696045 C45.7249956,18.0696045 45.0117278,18.1014186 44.2829132,18.1965636 C43.1820665,18.3313523 42.0966674,18.537698 41.0507789,18.9101509 C40.1239169,19.2430591 39.2129977,19.6159085 38.3020784,19.9805318 C37.5415763,20.2899511 36.6148132,20.6228594 35.8303473,20.8605236 C35.1727308,21.0668693 34.380541,21.1858005 33.5806274,21.1858005 C33.4696218,21.1698439 33.3825799,21.1698439 33.3032619,21.1698439 L33.3032619,21.1698439 Z" id="Fill-1" stroke="#F9B42D"></path>
                        <path d="M44.1958713,5.24625393 C41.1064302,4.96091813 37.9137074,6.00731457 35.545258,8.37781182 C35.4736639,8.44946787 35.394841,8.52885446 35.3232468,8.6078446 L35.3232468,2.02708338 C35.3232468,0.924888383 34.4281714,0.0290390373 33.3269286,0.0290390373 L33.2874182,0.0290390373 C32.1861753,0.0290390373 31.2910999,0.924888383 31.2910999,2.02708338 L31.2910999,16.7982407 C31.2910999,16.7982407 31.4497359,16.8459122 31.520835,16.8698967 C34.7607921,17.8764512 38.7774913,16.1877271 41.0588988,13.904347 C43.4273482,11.5334533 44.4732368,8.34649327 44.1958713,5.24625393 L44.1958713,5.24625393 Z" id="Fill-3" stroke="#8D8D8D"></path>
                    </g>
                </g>
            </g>
        </g>
    </g>
</svg>