<?xml version="1.0" encoding="UTF-8"?>
<svg width="115px" height="56px" viewBox="0 0 115 56" version="1.1" xmlns="http://www.w3.org/2000/svg" xmlns:xlink="http://www.w3.org/1999/xlink">
    <!-- Generator: sketchtool 40.1 (33804) - http://www.bohemiancoding.com/sketch -->
    <title>B3F2E2A3-9917-4D27-A3CE-7D0809BBE7DF</title>
    <desc>Created with sketchtool.</desc>
    <defs>
        <polygon id="path-1" points="0.149793738 0.000511617157 114.841866 0.000511617157 114.841866 57.4710936 0.149793738 57.4710936"></polygon>
    </defs>
    <g id="Page-1" stroke="none" stroke-width="1" fill="none" fill-rule="evenodd">
        <g id="Landing-page" transform="translate(-1483.000000, -4030.000000)">
            <g id="Services" transform="translate(0.000000, 3621.000000)">
                <g id="Icones" transform="translate(349.000000, 394.000000)">
                    <g id="dining4" transform="translate(1134.678755, 15.030697)">
                        <g id="Group-3">
                            <mask id="mask-2" fill="white">
                                <use xlink:href="#path-1"></use>
                            </mask>
                            <g id="Clip-2"></g>
                            <polygon id="Fill-1" fill="#F9B42D" mask="url(#mask-2)" points="5.20782897 37.9785714 21.6701608 37.9785714 23.8921013 55.9668636 25.9592549 55.9668636 25.9592549 31.9866386 5.60727894 31.9866386 3.63749128 0.000511617157 0 0.000511617157 0 55.9668636 3.63749128 55.9668636"></polygon>
                        </g>
                        <path d="M6.99287102,29.9851631 L24.9656231,29.9851631 C25.5223565,29.9851631 25.9592549,29.5353933 25.9592549,28.9906722 C25.9592549,28.4334574 25.5223565,27.9836876 24.9656231,27.9836876 L6.99287102,27.9836876 C6.43613763,27.9836876 5.98675641,28.4334574 5.98675641,28.9906722 C5.98675641,29.5353933 6.43613763,29.9851631 6.99287102,29.9851631 L6.99287102,29.9851631 Z" id="Fill-4" fill="#F9B42D"></path>
                        <polygon id="Fill-5" fill="#F9B42D" points="107.741643 31.9866386 85.8767502 31.9866386 85.8767502 55.9668636 89.4568206 55.9668636 91.6812576 37.9785714 108.141093 37.9785714 109.711431 55.9668636 113.848234 55.9668636 113.848234 0.000511617157 109.711431 0.000511617157"></polygon>
                        <path d="M85.8767502,28.9906722 C85.8767502,29.5353933 86.3261314,29.9851631 86.8828648,29.9851631 L104.855617,29.9851631 C105.41235,29.9851631 105.849249,29.5353933 105.849249,28.9906722 C105.849249,28.4334574 105.41235,27.9836876 104.855617,27.9836876 L86.8828648,27.9836876 C86.3261314,27.9836876 85.8767502,28.4334574 85.8767502,28.9906722 L85.8767502,28.9906722 Z" id="Fill-6" fill="#F9B42D"></path>
                        <path d="M17.7380752,13.9983464 L33.9582405,13.9983464 L33.9582405,55.9668636 L37.0389984,55.9668636 L39.4381948,21.9917548 L72.605025,21.9917548 L75.0042214,55.9668636 L77.8902474,55.9668636 L77.8902474,13.9983464 L96.1076626,13.9983464 C97.0838184,13.9983464 97.8627459,13.2062519 97.8627459,12.2317507 L97.8627459,11.7519963 C97.8627459,10.7849913 97.0838184,9.99539545 96.1076626,9.99539545 L17.7380752,9.99539545 C16.7644159,9.99539545 15.9730056,10.7849913 15.9730056,11.7519963 L15.9730056,12.2317507 C15.9730056,13.2062519 16.7644159,13.9983464 17.7380752,13.9983464 L17.7380752,13.9983464 Z M72.0383054,13.9983464 L72.3229135,17.9888038 L39.7203063,17.9888038 L40.0024178,13.9983464 L72.0383054,13.9983464 Z" id="Fill-7" fill="#7B7B7B"></path>
                    </g>
                </g>
            </g>
        </g>
    </g>
</svg>