<?xml version="1.0" encoding="UTF-8"?>
<svg width="94px" height="81px" viewBox="0 0 94 81" version="1.1" xmlns="http://www.w3.org/2000/svg" xmlns:xlink="http://www.w3.org/1999/xlink">
    <!-- Generator: sketchtool 40.1 (33804) - http://www.bohemiancoding.com/sketch -->
    <title>877F10F8-9345-4909-A7E9-8B3D9DDC090A</title>
    <desc>Created with sketchtool.</desc>
    <defs></defs>
    <g id="Page-1" stroke="none" stroke-width="1" fill="none" fill-rule="evenodd">
        <g id="Landing-page" transform="translate(-913.000000, -4015.000000)">
            <g id="Services" transform="translate(0.000000, 3621.000000)">
                <g id="Icones" transform="translate(349.000000, 394.000000)">
                    <g id="Picto-tente" transform="translate(564.000000, 0.000000)">
                        <path d="M39.7953488,23.9252669 L39.3627907,23.9252669 C39.3627907,22.572071 36.328739,21.475089 32.5860465,21.475089 C28.843354,21.475089 25.8093023,22.572071 25.8093023,23.9252669 C25.8093023,22.572071 22.7752506,21.475089 19.0325581,21.475089 C15.2898657,21.475089 12.255814,22.572071 12.255814,23.9252669 L0,23.9252669 L46.5,0 L93,23.9252669 L82.1860465,23.9252669 C82.1860465,22.572071 78.9583319,21.475089 74.9767442,21.475089 C70.9951565,21.475089 67.7674419,22.572071 67.7674419,23.9252669 C67.7674419,22.572071 64.5397273,21.475089 60.5581395,21.475089 C56.5765518,21.475089 53.3488372,22.572071 53.3488372,23.9252669 C53.3488372,22.572071 50.3147855,21.475089 46.572093,21.475089 C42.8294006,21.475089 39.7953488,22.572071 39.7953488,23.9252669 Z" id="Triangle-3" fill="#EAAD34"></path>
                        <path d="M0,24.6459075 L0,81 L0.679251453,81 C0.679251453,81 1.45062366,50.0669777 2.90962936,39.5631673 C4.05986542,31.2822802 7.11299055,24.6459075 7.11299055,24.6459075 L0,24.6459075 Z" id="Rectangle-39" fill="#7A7A7A"></path>
                        <path d="M85.9348837,24.6459075 L85.9348837,81 L86.6141352,81 C86.6141352,81 87.3855074,50.0669777 88.8445131,39.5631673 C89.9947491,31.2822802 93.0478743,24.6459075 93.0478743,24.6459075 L85.9348837,24.6459075 Z" id="Rectangle-40" fill="#7A7A7A" transform="translate(89.491379, 52.822954) scale(-1, 1) translate(-89.491379, -52.822954) "></path>
                    </g>
                </g>
            </g>
        </g>
    </g>
</svg>